<?xml version="1.0" encoding="UTF-8" standalone="no"?>
<svg
   xmlns:dc="http://purl.org/dc/elements/1.1/"
   xmlns:cc="http://creativecommons.org/ns#"
   xmlns:rdf="http://www.w3.org/1999/02/22-rdf-syntax-ns#"
   xmlns:svg="http://www.w3.org/2000/svg"
   xmlns="http://www.w3.org/2000/svg"
   xmlns:sodipodi="http://sodipodi.sourceforge.net/DTD/sodipodi-0.dtd"
   xmlns:inkscape="http://www.inkscape.org/namespaces/inkscape"
   width="788px"
   height="282px"
   viewBox="0 0 788 282"
   version="1.1"
   id="svg2"
   inkscape:version="0.91 r13725"
   sodipodi:docname="home_header_logo.svg">
  <metadata
     id="metadata59">
    <rdf:RDF>
      <cc:Work
         rdf:about="">
        <dc:format>image/svg+xml</dc:format>
        <dc:type
           rdf:resource="http://purl.org/dc/dcmitype/StillImage" />
      </cc:Work>
    </rdf:RDF>
  </metadata>
  <sodipodi:namedview
     pagecolor="#ffffff"
     bordercolor="#666666"
     borderopacity="1"
     objecttolerance="10"
     gridtolerance="10"
     guidetolerance="10"
     inkscape:pageopacity="0"
     inkscape:pageshadow="2"
     inkscape:window-width="1366"
     inkscape:window-height="705"
     id="namedview57"
     showgrid="false"
     inkscape:zoom="1.4805622"
     inkscape:cx="393.33687"
     inkscape:cy="134.76312"
     inkscape:window-x="1592"
     inkscape:window-y="27"
     inkscape:window-maximized="1"
     inkscape:current-layer="svg2" />
  <!-- Generator: Sketch 41.2 (35397) - http://www.bohemiancoding.com/sketch -->
  <title
     id="title4">home_header_logo</title>
  <desc
     id="desc6">Created with Sketch.</desc>
  <defs
     id="defs8" />
  <g
     id="Page-1"
     stroke="none"
     stroke-width="1"
     fill="none"
     fill-rule="evenodd">
    <g
       id="home_header_logo">
      <g
         id="g12">
        <g
           id="login_header_logo">
          <g
             id="Capa_2">
            <g
               id="Background">
              <path
                 d="M672.84,280.61 L117.39,280.61 C115.09,281.06 86,286.17 64.27,264.26 C42.75,242.57 47.79,213.87 48.27,211.47 L48.27,78.17 C48.390002,71.1571901 47.7665208,64.1514064 46.41,57.27 C45.6029531,52.3341534 44.1679796,47.5217835 42.14,42.95 C40.1361089,38.7247799 37.6459296,34.7478762 34.72,31.1 C31.31,26.59 28.89,23.39 24.61,20.19 C21.0664093,17.6249766 17.1601155,15.6027365 13.02,14.19 C10.52,13.25 8.08,12.59 7.26,12.37 C2.51,11.07 0,10.92 0,10.75 C0,8.13 117.14,9 117.39,9 C208.39,9 216.71,8.52 227.9,9.86 C232.464072,10.5361562 237.077284,10.8238546 241.69,10.72 C247,10.59 249,10.1 261,9 C263.78753,8.72097493 266.588915,8.60411143 269.39,8.65 C273.019556,8.71877907 276.639217,9.05300448 280.22,9.65 C286.3,10.55 288.73,9.79 299.79,9.3 C306.06,9.02 313.17,9.12 327.4,9.3 C339.03,9.45 339.26,9.65 347.67,9.65 C356.08,9.65 356.51,9.44 367.94,9.3 C376.74,9.19 383.09,9.24 392.75,9.3 C404.14,9.38 403.75,9.6 414.07,9.65 C425.29,9.71 432.34,9.65 432.34,9.65 C436.7,9.65 437.99,9.94 440.75,9.65 C442.818134,9.30612149 444.905364,9.08904961 447,9 C449,9 449.4,9.18 452.87,9.27 C454.96,9.32 456.55,9.27 457.94,9.27 C461.67,9.2 461.81,9.05 464.61,9 C466.61,9 468.46,9 472.08,9.2 C474.81,9.32 475.3,9.38 478.48,9.53 C478.48,9.53 481.48,9.67 485.15,9.8 C495.75,10.16 508.06,9.87 508.06,9.87 C520.83,9.57 525.17,9.1 540.34,8.44 C549.86,8.03 556.66,7.84 565.1,7.61 C565.1,7.61 624.91,5.99 672.86,8.99 L676.53,9.18 C680,9.35 685.45,9.55 692.07,9.5 C695.59,9.5 700.07,9.32 709.07,9.01 C723.32,8.52 723.54,8.39 726.68,8.55 C734.61,8.96 735.39,9.91 741.68,9.61 C746.52,9.37 747.61,8.73 753.09,8.76 C758.36,8.76 758.92,9.39 761.89,8.76 C764.86,8.13 766.53,7.02 769.3,7.62 C770.76,7.94 771.11,8.41 773.01,8.76 C774.701066,9.0064809 776.418934,9.0064809 778.11,8.76 C782.91,8.47 787.52,10.17 787.47,10.89 C787.47,11.29 785.95,11.26 783.15,11.89 C779.974872,12.6667597 776.903326,13.8181699 774,15.32 C762.931342,20.5417646 753.821434,29.1646432 748,39.93 C746.559272,42.5046586 745.357578,45.2059596 744.41,48 C742.928405,52.3818497 742.165219,56.9744732 742.15,61.6 C742.164439,63.3400683 742.294727,65.0772442 742.54,66.8 C742.353333,115.013333 742.166667,163.226667 741.98,211.44 C742.3,213.21 747.58,245.22 723.32,266.81 C702.21,285.63 676,281.2 672.84,280.61 Z"
                 id="Shape"
                 fill="#AF272F" />
              <rect
                 id="Rectangle-path"
                 x="2.1866433e-009"
                 y="-15.534639"
                 width="787.48999"
                 height="26.454638"
                 style="fill:#af272f" />
              <path
                 d="M354.13,107.33 C354.241961,113.021095 350.774797,118.171854 345.46,120.21 C350.83,122.02 354.99,126.21 354.99,134.11 C354.99,148.23 343.72,150.85 331.3,150.85 C324.452023,150.89648 317.612961,150.347749 310.86,149.21 L310.86,92.69 C317.296351,91.5106725 323.826497,90.91824 330.37,90.92 C341.48,90.92 354.13,93.06 354.13,107.33 L354.13,107.33 Z M324.44,125.33 L324.44,139.42 C326.630357,139.719812 328.83926,139.863508 331.05,139.85 C337.05,139.85 341.36,138.85 341.36,132.77 C341.36,126.35 336.78,125.33 330.77,125.33 L324.44,125.33 Z M330.77,115.2 C336.54,115.2 340.77,114.2 340.77,108.37 C340.77,102.54 336.66,101.84 330.34,101.84 C328.374291,101.852592 326.410978,101.979473 324.46,102.22 L324.46,115.22 L330.77,115.2 Z"
                 id="path19"
                 fill="#FFFFFF" />
              <path
                 d="M362.57,136.21 C362.57,128.12 366.15,123.21 375.37,121.7 C379.599654,121.072764 383.864943,120.715375 388.14,120.63 C388.14,116.58 386.05,115.06 381.26,115.06 C375.873768,115.136624 370.49718,115.540703 365.16,116.27 L364.16,106.55 C370.046401,105.457273 376.013845,104.858522 382,104.76 C392.16,104.76 400.68,107.66 400.68,119.53 L400.68,137.62 C400.68,140.77 400.58,143.42 400.3,146.44 C394.9,149.67 388.07,150.85 380.3,150.85 C367.62,150.85 362.56,146.01 362.56,136.21 L362.57,136.21 Z M388.14,129.08 C385.321995,129.158557 382.51552,129.472989 379.75,130.02 C376.54,130.8 375.24,131.88 375.24,136.02 C375.24,139.8 377.53,140.89 381.49,140.89 C383.64829,140.968109 385.803725,140.67034 387.86,140.01 C388.056634,138.016159 388.150092,136.013488 388.14,134.01 L388.14,129.08 Z"
                 id="path21"
                 fill="#FFFFFF" />
              <path
                 d="M422.77,150.24 L410,150.24 L410,118 C410,114.85 410.1,112.2 410.38,109.18 C415.77,106.05 422.93,104.77 430.27,104.77 C446.85,104.77 448.73,111.85 448.73,121.91 L448.73,150.25 L435.85,150.25 L435.85,122.87 C435.85,117.43 434.85,115.21 428.61,115.19 C426.716747,115.163717 424.832938,115.461338 423.04,116.07 C422.840516,118.063633 422.747051,120.066453 422.76,122.07 L422.77,150.24 Z"
                 id="path23"
                 fill="#FFFFFF" />
              <path
                 d="M489.15,149 C484.10061,150.295704 478.902625,150.921076 473.69,150.86 C458.56,150.86 456.32,139.27 456.32,127.42 C456.32,112.73 459.79,104.76 476.42,104.76 C480.715002,104.69282 484.991893,105.331314 489.08,106.65 L488.08,116.07 C485.287585,115.386048 482.432951,114.987337 479.56,114.88 C470.46,114.88 469.33,117.88 469.33,127.41 C469.33,136.41 469.78,140.41 479.69,140.41 C482.520864,140.333643 485.334616,139.944614 488.08,139.25 L489.15,149 Z"
                 id="path25"
                 fill="#FFFFFF" />
              <path
                 d="M494.75,127.79 C494.75,111.1 500.12,104.79 515.02,104.79 C529.92,104.79 535.28,111.23 535.28,127.79 C535.28,144.35 529.91,150.85 515.02,150.85 C500.13,150.85 494.75,144.53 494.75,127.79 M522.38,127.79 C522.38,117.99 520.97,115.24 515.02,115.24 C509.07,115.24 507.68,117.81 507.68,127.79 C507.68,137.77 509,140.34 515,140.34 C521,140.34 522.36,137.64 522.36,127.79"
                 id="path27"
                 fill="#FFFFFF" />
              <path
                 d="M305.7,220.48 L322.89,170.31 C325.22,163.54 328.49,160.8 333.48,160.8 C338.3,160.8 341.8,163.8 343.98,170.31 L360.91,220.48 L346.26,220.48 L342.26,206.99 L323.82,206.99 L319.94,220.48 L305.7,220.48 Z M339.09,196.29 L332.93,175.45 L326.93,196.29 L339.09,196.29 Z"
                 id="path29"
                 fill="#FFFFFF" />
              <path
                 d="M408.93,160.93 L408.93,206.44 C408.93,209.53 410.25,211.13 413.6,211.13 C414.914869,211.143699 416.224896,210.96858 417.49,210.61 L418.77,220.18 C415.901988,220.735802 412.990948,221.04029 410.07,221.09 C400.21,221.09 396.07,216.73 396.07,207.96 L396.07,160.96 L408.93,160.93 Z"
                 id="path31"
                 fill="#FFFFFF" />
              <path
                 d="M422,206.36 C422,198.22 425.57,193.28 434.88,191.76 C439.129965,191.135855 443.415228,190.781812 447.71,190.7 C447.71,186.62 445.63,185.09 440.81,185.09 C435.390313,185.169041 429.980397,185.576455 424.61,186.31 L423.55,176.53 C429.489362,175.429488 435.510326,174.827391 441.55,174.73 C451.77,174.73 460.33,177.64 460.33,189.58 L460.33,207.78 C460.33,210.95 460.2,213.61 459.95,216.65 C454.53,219.89 447.66,221.09 439.78,221.09 C427,221.09 422,216.22 422,206.36 Z M447.71,199.19 C444.875196,199.264812 442.051799,199.579266 439.27,200.13 C436.08,200.92 434.76,202 434.76,206.21 C434.76,210.01 437.05,211.1 441.02,211.1 C443.192205,211.179141 445.361524,210.877941 447.43,210.21 C447.630386,208.196369 447.72385,206.173529 447.71,204.15 L447.71,199.19 Z M446.59,169.9 L436.73,169.9 L443.36,158.6 L456.21,158.6 L446.59,169.9 Z"
                 id="path33"
                 fill="#FFFFFF" />
              <path
                 d="M483.07,220.48 L470.19,220.48 L470.19,188 C470.19,184.83 470.29,182.17 470.57,179.13 C475.99,175.99 483.19,174.7 490.57,174.7 C507.25,174.7 509.16,181.82 509.16,191.94 L509.16,220.46 L496.23,220.46 L496.23,192.95 C496.23,187.48 495.23,185.24 488.95,185.22 C487.046162,185.194095 485.152001,185.495131 483.35,186.11 C483.15281,188.123862 483.059353,190.146535 483.07,192.17 L483.07,220.48 Z"
                 id="path35"
                 fill="#FFFFFF" />
              <path
                 d="M549.12,164.52 C549.12,159.85 550.85,158.06 556.12,158.06 C561.39,158.06 563.12,159.86 563.12,164.52 C563.12,169.18 561.42,170.98 556.12,170.98 C550.82,170.98 549.12,169.19 549.12,164.52 Z M549.59,174.72 L562.7,174.72 L562.7,220.48 L549.59,220.48 L549.59,174.72 Z"
                 id="path37"
                 fill="#FFFFFF" />
              <path
                 d="M599.19,160.93 L612.19,160.93 L612.19,207.78 C612.19,210.95 612.08,213.61 611.8,216.65 C606.68,219.77 599.51,221.09 593.17,221.09 C577.88,221.09 571.47,215.69 571.47,197.89 C571.47,180.3 577.88,174.72 591.9,174.72 C594.341924,174.732505 596.778002,174.96005 599.18,175.4 L599.19,160.93 Z M594.25,185.11 C584.82,185.11 584.49,190.64 584.49,197.89 C584.49,204.28 584.77,210.77 593.19,210.77 C595.134629,210.805408 597.071446,210.514717 598.92,209.91 C599.117473,207.896158 599.21093,205.873471 599.2,203.85 L599.2,185.85 C597.587763,185.395786 595.924586,185.14715 594.25,185.11 Z"
                 id="path39"
                 fill="#FFFFFF" />
              <path
                 d="M620.36,206.36 C620.36,198.22 623.96,193.28 633.24,191.76 C637.499999,191.135605 641.795258,190.781563 646.1,190.7 C646.1,186.62 643.99,185.09 639.18,185.09 C633.767229,185.167313 628.364064,185.571382 623,186.3 L622,176.52 C627.939164,175.418097 633.960245,174.815989 640,174.72 C650.22,174.72 658.79,177.63 658.79,189.57 L658.79,207.77 C658.79,210.94 658.69,213.6 658.4,216.64 C652.98,219.88 646.11,221.08 638.25,221.08 C625.46,221.09 620.36,216.22 620.36,206.36 Z M646.09,199.19 C643.255219,199.265146 640.43185,199.579597 637.65,200.13 C634.43,200.92 633.11,202 633.11,206.21 C633.11,210.01 635.42,211.1 639.4,211.1 C641.572111,211.177298 643.741112,210.876141 645.81,210.21 C646.009256,208.196287 646.102718,206.173507 646.09,204.15 L646.09,199.19 Z"
                 id="path41"
                 fill="#FFFFFF" />
              <path
                 d="M531.2,160.93 L531.2,174.72 L542.42,174.72 L542.42,185.42 L531.2,185.42 L531.2,206.42 C531.2,209.51 532.51,211.11 535.86,211.11 C537.2,211.11 538.57,211.06 540.02,210.93 L541.02,220.16 C538.151981,220.715751 535.240945,221.020239 532.32,221.07 C522.46,221.07 518.32,216.71 518.32,207.94 L518.32,160.94 L531.2,160.93 Z"
                 id="path43"
                 fill="#FFFFFF" />
              <path
                 d="M377.79,160.93 L377.79,174.72 L389,174.72 L389,185.42 L377.79,185.42 L377.79,206.42 C377.79,209.51 379.11,211.11 382.46,211.11 C383.8,211.11 385.17,211.06 386.62,210.93 L387.62,220.16 C384.755242,220.715023 381.847591,221.019507 378.93,221.07 C369.06,221.07 364.93,216.71 364.93,207.94 L364.93,192 L364.93,160.94 L377.79,160.93 Z"
                 id="path45"
                 fill="#FFFFFF" />
              <path
                 d="M133,90.62 C131.86222,90.6173447 130.769987,91.0667811 129.96358,91.8694374 C129.157172,92.6720938 128.702649,93.7622203 128.7,94.9 L128.7,165 C128.7,199 150.53,221.08 184.47,221.08 L213.4,221.08 C215.772543,221.074502 217.694502,219.152543 217.7,216.78 L217.7,182.29 C217.689052,179.919725 215.770275,178.000948 213.4,177.99 L195,177.99 C192.64,177.99 181.6,177.62 181.6,164.6 L181.6,94.91 C181.597351,93.7722203 181.142828,92.6820938 180.33642,91.8794374 C179.530013,91.0767811 178.43778,90.6273447 177.3,90.63 L133,90.62 Z"
                 id="path47"
                 fill="#FFFFFF" />
              <path
                 d="M192.24,109.46 C189.865821,109.46547 187.940985,111.38584 187.93,113.76 L187.93,153.32 C187.946454,155.690252 189.869697,157.60457 192.24,157.61 L213.31,157.61 C215.68,157.61 223.97,157.98 223.97,171.01 L223.97,216.8 C223.980948,219.170275 225.899725,221.089052 228.27,221.1 L272.5,221.1 C274.870275,221.089052 276.789052,219.170275 276.8,216.8 L276.8,165.55 C276.8,131.55 254.97,109.46 221.02,109.46 L192.24,109.46 Z"
                 id="path49"
                 fill="#FFFFFF" />
              <rect
                 id="rect51"
                 fill="#AF272F"
                 x="110.75"
                 y="275.61"
                 width="574.38"
                 height="5.74" />
              <rect
                 id="rect53"
                 fill="#AF272F"
                 x="47.61"
                 y="52.21"
                 width="7.45"
                 height="164.38" />
              <rect
                 id="rect55"
                 fill="#AF272F"
                 x="735.08"
                 y="50.79"
                 width="7.45"
                 height="169.78" />
            </g>
          </g>
        </g>
      </g>
    </g>
  </g>
</svg>
