<svg xmlns="http://www.w3.org/2000/svg" xmlns:xlink="http://www.w3.org/1999/xlink" viewBox="0 0 787.49 281.48"><defs><style>.cls-1{fill:#fff;}.cls-2{fill:#d8272e;}.cls-3{fill:url(#Degradado_sin_nombre_10);}.cls-4{fill:url(#Degradado_sin_nombre_10-2);}</style><linearGradient id="Degradado_sin_nombre_10" x1="154.75" y1="155.87" x2="218.95" y2="155.87" gradientUnits="userSpaceOnUse"><stop offset="0" stop-color="#da0c24"/><stop offset="0.72" stop-color="#c41421"/><stop offset="1" stop-color="#ba1820"/></linearGradient><linearGradient id="Degradado_sin_nombre_10-2" x1="247.49" y1="165.29" x2="194.02" y2="165.29" xlink:href="#Degradado_sin_nombre_10"/></defs><title>Recurso 1</title><g id="Capa_2" data-name="Capa 2"><g id="Background"><path class="cls-1" d="M672.84,280.61H117.39c-2.3.45-31.39,5.56-53.12-16.35-21.52-21.69-16.48-50.39-16-52.79V78.17a99.28,99.28,0,0,0-1.86-20.9,58.66,58.66,0,0,0-4.27-14.32A60.1,60.1,0,0,0,34.72,31.1c-3.41-4.51-5.83-7.71-10.11-10.91a44,44,0,0,0-11.59-6c-2.5-.94-4.94-1.6-5.76-1.82C2.51,11.07,0,10.92,0,10.75,0,8.13,117.14,9,117.39,9h0c91,0,99.32-.48,110.51.86a81.57,81.57,0,0,0,13.79.86C247,10.59,249,10.1,261,9a72.34,72.34,0,0,1,8.39-.35,74.43,74.43,0,0,1,10.83,1c6.08.9,8.51.14,19.57-.35,6.27-.28,13.38-.18,27.61,0,11.63.15,11.86.35,20.27.35s8.84-.21,20.27-.35c8.8-.11,15.15-.06,24.81,0,11.39.08,11,.3,21.32.35,11.22.06,18.27,0,18.27,0,4.36,0,5.65.29,8.41,0A51.42,51.42,0,0,1,447,9c2,0,2.4.18,5.87.27,2.09.05,3.68,0,5.07,0,3.73-.07,3.87-.22,6.67-.27,2,0,3.85,0,7.47.2,2.73.12,3.22.18,6.4.33,0,0,3,.14,6.67.27,10.6.36,22.91.07,22.91.07,12.77-.3,17.11-.77,32.28-1.43,9.52-.41,16.32-.6,24.76-.83,0,0,59.81-1.62,107.76,1.38h.2l3.47.19c3.47.17,8.92.37,15.54.32,3.52,0,8-.18,17-.49,14.25-.49,14.47-.62,17.61-.46,7.93.41,8.71,1.36,15,1.06,4.84-.24,5.93-.88,11.41-.85,5.27,0,5.83.63,8.8,0s4.64-1.74,7.41-1.14c1.46.32,1.81.79,3.71,1.14a17.68,17.68,0,0,0,5.1,0c4.8-.29,9.41,1.41,9.36,2.13,0,.4-1.52.37-4.32,1A41.25,41.25,0,0,0,774,15.32a57.4,57.4,0,0,0-26,24.61A48.28,48.28,0,0,0,744.41,48a42.9,42.9,0,0,0-2.26,13.6,39.2,39.2,0,0,0,.39,5.2q-.28,72.32-.56,144.64c.32,1.77,5.6,33.78-18.66,55.37C702.21,285.63,676,281.2,672.84,280.61Z"/><rect class="cls-1" width="787.49" height="10.92"/><path class="cls-2" d="M354.13,107.33a13.51,13.51,0,0,1-8.67,12.88c5.37,1.81,9.53,6,9.53,13.9,0,14.12-11.27,16.74-23.69,16.74a118.2,118.2,0,0,1-20.44-1.64V92.69a108.09,108.09,0,0,1,19.51-1.77c11.11,0,23.76,2.14,23.76,16.41m-29.69,18v14.09a46.64,46.64,0,0,0,6.61.43c6,0,10.31-1,10.31-7.08,0-6.42-4.58-7.44-10.59-7.44Zm6.33-10.13c5.77,0,10-1,10-6.83s-4.11-6.53-10.43-6.53a50.71,50.71,0,0,0-5.88.38v13Z"/><path class="cls-2" d="M362.57,136.21c0-8.09,3.58-13,12.8-14.51a100.77,100.77,0,0,1,12.77-1.07c0-4.05-2.09-5.57-6.88-5.57a132.88,132.88,0,0,0-16.1,1.21l-1-9.72A107.43,107.43,0,0,1,382,104.76c10.16,0,18.68,2.9,18.68,14.77v18.09c0,3.15-.1,5.8-.38,8.82-5.4,3.23-12.23,4.41-20,4.41-12.68,0-17.74-4.84-17.74-14.64m25.58-7.13a50.49,50.49,0,0,0-8.39.94c-3.21.78-4.51,1.86-4.51,6,0,3.78,2.29,4.87,6.25,4.87a18.63,18.63,0,0,0,6.37-.88,58.15,58.15,0,0,0,.28-6Z"/><path class="cls-2" d="M422.77,150.24H410V118c0-3.15.1-5.8.38-8.82,5.39-3.13,12.55-4.41,19.89-4.41,16.58,0,18.46,7.08,18.46,17.14v28.34H435.85V122.87c0-5.44-1-7.66-7.24-7.68a16.61,16.61,0,0,0-5.57.88,56.59,56.59,0,0,0-.28,6Z"/><path class="cls-2" d="M489.15,149a59.4,59.4,0,0,1-15.46,1.86c-15.13,0-17.37-11.59-17.37-23.44,0-14.69,3.47-22.66,20.1-22.66a39.24,39.24,0,0,1,12.66,1.89l-1,9.42a42.48,42.48,0,0,0-8.52-1.19c-9.1,0-10.23,3-10.23,12.53,0,9,.45,13,10.36,13a38.43,38.43,0,0,0,8.39-1.16Z"/><path class="cls-2" d="M494.75,127.79c0-16.69,5.37-23,20.27-23s20.26,6.44,20.26,23-5.37,23.06-20.26,23.06-20.27-6.32-20.27-23.06m27.63,0c0-9.8-1.41-12.55-7.36-12.55s-7.34,2.57-7.34,12.55S509,140.34,515,140.34s7.36-2.7,7.36-12.55"/><path class="cls-2" d="M305.7,220.48l17.19-50.17c2.33-6.77,5.6-9.51,10.59-9.51,4.82,0,8.32,3,10.5,9.51l16.93,50.17H346.26l-4-13.49H323.82l-3.88,13.49Zm33.39-24.19-6.16-20.84-6,20.84Z"/><path class="cls-2" d="M408.93,160.93v45.51c0,3.09,1.32,4.69,4.67,4.69a13.74,13.74,0,0,0,3.89-.52l1.28,9.57a50.22,50.22,0,0,1-8.7.91c-9.86,0-14-4.36-14-13.13v-47Z"/><path class="cls-2" d="M422,206.36c0-8.14,3.57-13.08,12.88-14.6a101.62,101.62,0,0,1,12.83-1.06c0-4.08-2.08-5.61-6.9-5.61a134.16,134.16,0,0,0-16.2,1.22l-1.06-9.78a108.39,108.39,0,0,1,18-1.8c10.22,0,18.78,2.91,18.78,14.85v18.2c0,3.17-.13,5.83-.38,8.87-5.42,3.24-12.29,4.44-20.17,4.44C427,221.09,422,216.22,422,206.36Zm25.71-7.17a50.29,50.29,0,0,0-8.44.94c-3.19.79-4.51,1.87-4.51,6.08,0,3.8,2.29,4.89,6.26,4.89a18.65,18.65,0,0,0,6.41-.89,57.24,57.24,0,0,0,.28-6.06Zm-1.12-29.29h-9.86l6.63-11.3h12.85Z"/><path class="cls-2" d="M483.07,220.48H470.19V188c0-3.17.1-5.83.38-8.87,5.42-3.14,12.62-4.43,20-4.43,16.68,0,18.59,7.12,18.59,17.24v28.52H496.23V192.95c0-5.47-1-7.71-7.28-7.73a16.64,16.64,0,0,0-5.6.89,59,59,0,0,0-.28,6.06Z"/><path class="cls-2" d="M549.12,164.52c0-4.67,1.73-6.46,7-6.46s7,1.8,7,6.46-1.7,6.46-7,6.46S549.12,169.19,549.12,164.52Zm.47,10.2H562.7v45.76H549.59Z"/><path class="cls-2" d="M599.19,160.93h13v46.85c0,3.17-.11,5.83-.39,8.87-5.12,3.12-12.29,4.44-18.63,4.44-15.29,0-21.7-5.4-21.7-23.2,0-17.59,6.41-23.17,20.43-23.17a41.59,41.59,0,0,1,7.28.68Zm-4.94,24.18c-9.43,0-9.76,5.53-9.76,12.78,0,6.39.28,12.88,8.7,12.88a17.41,17.41,0,0,0,5.73-.86,58.84,58.84,0,0,0,.28-6.06v-18A19.88,19.88,0,0,0,594.25,185.11Z"/><path class="cls-2" d="M620.36,206.36c0-8.14,3.6-13.08,12.88-14.6a102,102,0,0,1,12.86-1.06c0-4.08-2.11-5.61-6.92-5.61A134.48,134.48,0,0,0,623,186.3l-1-9.78a108.09,108.09,0,0,1,18-1.8c10.22,0,18.79,2.91,18.79,14.85v18.2c0,3.17-.1,5.83-.39,8.87-5.42,3.24-12.29,4.44-20.15,4.44C625.46,221.09,620.36,216.22,620.36,206.36Zm25.73-7.17a50.36,50.36,0,0,0-8.44.94c-3.22.79-4.54,1.87-4.54,6.08,0,3.8,2.31,4.89,6.29,4.89a18.74,18.74,0,0,0,6.41-.89,57.85,57.85,0,0,0,.28-6.06Z"/><path class="cls-2" d="M531.2,160.93v13.79h11.22v10.7H531.2v21c0,3.09,1.31,4.69,4.66,4.69,1.34,0,2.71-.05,4.16-.18l1,9.23a50.23,50.23,0,0,1-8.7.91c-9.86,0-14-4.36-14-13.13v-47Z"/><path class="cls-2" d="M377.79,160.93v13.79H389v10.7H377.79v21c0,3.09,1.32,4.69,4.67,4.69,1.34,0,2.71-.05,4.16-.18l1,9.23a50.26,50.26,0,0,1-8.69.91c-9.87,0-14-4.36-14-13.13v-47Z"/><path class="cls-3" d="M133,90.62a4.29,4.29,0,0,0-4.3,4.28V165c0,34,21.83,56.08,55.77,56.08H213.4a4.31,4.31,0,0,0,4.3-4.3V182.29a4.32,4.32,0,0,0-4.3-4.3H195c-2.36,0-13.4-.37-13.4-13.39V94.91a4.29,4.29,0,0,0-4.3-4.28Z"/><path class="cls-4" d="M192.24,109.46a4.32,4.32,0,0,0-4.31,4.3v39.56a4.32,4.32,0,0,0,4.31,4.29h21.07c2.37,0,10.66.37,10.66,13.4v45.79a4.32,4.32,0,0,0,4.3,4.3H272.5a4.32,4.32,0,0,0,4.3-4.3V165.55c0-34-21.83-56.09-55.78-56.09Z"/><rect class="cls-1" x="110.75" y="275.61" width="574.38" height="5.74"/><rect class="cls-1" x="47.61" y="52.21" width="7.45" height="164.38"/><rect class="cls-1" x="735.08" y="50.79" width="7.45" height="169.78"/></g></g></svg>
