<?xml version="1.0" encoding="UTF-8" standalone="no"?>
<!-- Created with Inkscape (http://www.inkscape.org/) -->

<svg
   xmlns:dc="http://purl.org/dc/elements/1.1/"
   xmlns:cc="http://creativecommons.org/ns#"
   xmlns:rdf="http://www.w3.org/1999/02/22-rdf-syntax-ns#"
   xmlns:svg="http://www.w3.org/2000/svg"
   xmlns="http://www.w3.org/2000/svg"
   xmlns:sodipodi="http://sodipodi.sourceforge.net/DTD/sodipodi-0.dtd"
   xmlns:inkscape="http://www.inkscape.org/namespaces/inkscape"
   width="90"
   height="90"
   viewBox="0 0 89.999997 89.999997"
   id="svg2"
   version="1.1"
   inkscape:version="0.91 r13725"
   sodipodi:docname="icon_instagram@2.svg">
  <defs
     id="defs4" />
  <sodipodi:namedview
     id="base"
     pagecolor="#ffffff"
     bordercolor="#666666"
     borderopacity="1.0"
     inkscape:pageopacity="0.0"
     inkscape:pageshadow="2"
     inkscape:zoom="4.9144349"
     inkscape:cx="50.244097"
     inkscape:cy="50.244097"
     inkscape:document-units="px"
     inkscape:current-layer="layer1"
     showgrid="false"
     units="px"
     inkscape:window-width="1366"
     inkscape:window-height="705"
     inkscape:window-x="-8"
     inkscape:window-y="-8"
     inkscape:window-maximized="1"
     showguides="true"
     inkscape:guide-bbox="true" />
  <metadata
     id="metadata7">
    <rdf:RDF>
      <cc:Work
         rdf:about="">
        <dc:format>image/svg+xml</dc:format>
        <dc:type
           rdf:resource="http://purl.org/dc/dcmitype/StillImage" />
        <dc:title></dc:title>
      </cc:Work>
    </rdf:RDF>
  </metadata>
  <g
     inkscape:label="Capa 1"
     inkscape:groupmode="layer"
     id="layer1"
     transform="translate(0,-962.36223)">
    <path
       style="fill:#FFFFFF;fill-opacity:1"
       d="m 23.552162,1041.8865 c -5.369026,-1.157 -9.963412,-4.7137 -12.257706,-9.4892 -1.8686632,-3.8895 -1.8167132,-3.1139 -1.7398302,-25.975 l 0.06807,-20.23946 0.6316362,-1.85204 c 1.949947,-5.71749 6.416767,-9.96076 12.27174,-11.65759 l 1.859481,-0.53889 20.120344,0 20.120344,0 1.859482,0.53889 c 5.854972,1.69683 10.321791,5.9401 12.271739,11.65759 l 0.631636,1.85204 0.06807,20.23946 c 0.07708,22.9209 0.131913,22.1185 -1.778118,26.0223 -1.802004,3.6831 -5.294081,6.9661 -9.0201,8.4801 -3.261299,1.3252 -3.43986,1.3348 -24.321594,1.3143 -15.543681,-0.015 -19.534646,-0.083 -20.785187,-0.3525 z m 41.562054,-7.5448 c 2.636697,-0.8943 5.265837,-3.4065 6.332247,-6.0505 l 0.561203,-1.3914 0.06635,-19.1355 c 0.07252,-20.91488 0.08201,-20.74692 -1.306019,-23.11542 -0.976815,-1.66681 -2.762483,-3.29424 -4.536714,-4.13471 l -1.605044,-0.76032 -20.125352,0 -20.125351,0 -1.564636,0.77027 c -1.976636,0.9731 -3.451547,2.27417 -4.42756,3.90573 -1.521595,2.54358 -1.498274,2.19014 -1.498274,22.70675 0,19.9445 -9.05e-4,19.9279 1.219138,22.3194 0.699641,1.3714 2.944318,3.5441 4.376461,4.2362 2.367038,1.1439 2.607289,1.1556 22.620505,1.105 17.053529,-0.043 18.923051,-0.086 20.013047,-0.4555 z"
       id="path4153"
       inkscape:connector-curvature="0" />
    <path
       style="fill:#FFFFFF;fill-opacity:1"
       d="m 40.572563,1024.764 c -8.928742,-1.9441 -15.168484,-10.8449 -13.928734,-19.8688 1.300981,-9.46954 9.6202,-16.32384 19.004487,-15.65797 2.662626,0.18893 4.460212,0.67324 6.853957,1.84662 5.623353,2.75647 9.343436,8.24793 9.987441,14.74315 0.31093,3.1359 -0.757584,7.6331 -2.524898,10.6268 -1.092792,1.8511 -4.286959,5.057 -6.065431,6.0877 -1.910783,1.1074 -4.189968,1.9977 -5.925091,2.3145 -1.875736,0.3424 -5.620191,0.2959 -7.401731,-0.092 z m 6.433492,-7.3552 c 5.120429,-1.3678 8.211498,-5.627 7.933102,-10.9311 -0.08781,-1.6731 -0.243862,-2.2927 -0.948692,-3.7672 -3.153323,-6.59669 -11.668742,-8.12856 -16.837954,-3.02908 -5.107402,5.03848 -3.786256,13.63968 2.591171,16.86958 2.278989,1.1542 4.965171,1.4715 7.262373,0.8578 z"
       id="path4155"
       inkscape:connector-curvature="0" />
    <path
       style="fill:#FFFFFF;fill-opacity:1"
       d="m 61.404592,992.19513 c -3.104384,-1.56829 -3.0868,-5.84101 0.03067,-7.45312 1.742498,-0.90108 4.295433,-0.11466 5.323694,1.63993 1.314151,2.24243 0.49381,4.79657 -1.894612,5.8989 -1.265228,0.58394 -2.179011,0.5613 -3.459756,-0.0857 z"
       id="path4157"
       inkscape:connector-curvature="0" />
  </g>
</svg>
