<?xml version="1.0" encoding="UTF-8" standalone="no"?>
<!-- Created with Inkscape (http://www.inkscape.org/) -->

<svg
   xmlns:dc="http://purl.org/dc/elements/1.1/"
   xmlns:cc="http://creativecommons.org/ns#"
   xmlns:rdf="http://www.w3.org/1999/02/22-rdf-syntax-ns#"
   xmlns:svg="http://www.w3.org/2000/svg"
   xmlns="http://www.w3.org/2000/svg"
   xmlns:sodipodi="http://sodipodi.sourceforge.net/DTD/sodipodi-0.dtd"
   xmlns:inkscape="http://www.inkscape.org/namespaces/inkscape"
   width="90"
   height="90"
   viewBox="0 0 89.999997 89.999997"
   id="svg2"
   version="1.1"
   inkscape:version="0.91 r13725"
   sodipodi:docname="icon_facebook.svg">
  <defs
     id="defs4" />
  <sodipodi:namedview
     id="base"
     pagecolor="#ffffff"
     bordercolor="#666666"
     borderopacity="1.0"
     inkscape:pageopacity="0.0"
     inkscape:pageshadow="2"
     inkscape:zoom="5.0858687"
     inkscape:cx="21.16672"
     inkscape:cy="47.793166"
     inkscape:document-units="px"
     inkscape:current-layer="layer1"
     showgrid="false"
     units="px"
     inkscape:window-width="1366"
     inkscape:window-height="705"
     inkscape:window-x="-8"
     inkscape:window-y="-8"
     inkscape:window-maximized="1"
     showguides="true"
     inkscape:guide-bbox="true" />
  <metadata
     id="metadata7">
    <rdf:RDF>
      <cc:Work
         rdf:about="">
        <dc:format>image/svg+xml</dc:format>
        <dc:type
           rdf:resource="http://purl.org/dc/dcmitype/StillImage" />
        <dc:title></dc:title>
      </cc:Work>
    </rdf:RDF>
  </metadata>
  <g
     inkscape:label="Capa 1"
     inkscape:groupmode="layer"
     id="layer1"
     transform="translate(0,-962.36223)">
    <path
       style="fill:#FFFFFF;fill-opacity:1"
       d="m 35.390013,1025.049 0,-17.7046 -3.469109,0 -3.469108,0 0,-6.1008 0,-6.10084 3.469108,0 3.469109,0 0,-5.0343 c 0,-5.91354 0.292758,-7.77166 1.679416,-10.65916 1.143091,-2.38032 2.91641,-4.23361 5.191338,-5.42546 2.914668,-1.52702 3.717802,-1.65165 11.491595,-1.78302 l 6.998028,-0.11827 0,5.98874 0,5.98875 -4.485915,0.0785 c -6.43402,0.11255 -6.342418,0.0191 -6.471719,6.59799 l -0.08582,4.3663 5.649588,0 5.649592,0 -0.1367,1.13643 c -0.259559,2.15781 -1.074866,10.22914 -1.075445,10.64654 -4.79e-4,0.3855 -0.39955,0.4186 -5.024807,0.4186 l -5.024226,0 0,17.7046 0,17.7044 -7.177465,0 -7.177467,0 0,-17.7044 z"
       id="path4196"
       inkscape:connector-curvature="0" />
  </g>
</svg>
