<?xml version="1.0" encoding="UTF-8" standalone="no"?>
<svg
   xmlns:dc="http://purl.org/dc/elements/1.1/"
   xmlns:cc="http://creativecommons.org/ns#"
   xmlns:rdf="http://www.w3.org/1999/02/22-rdf-syntax-ns#"
   xmlns:svg="http://www.w3.org/2000/svg"
   xmlns="http://www.w3.org/2000/svg"
   xmlns:sodipodi="http://sodipodi.sourceforge.net/DTD/sodipodi-0.dtd"
   xmlns:inkscape="http://www.inkscape.org/namespaces/inkscape"
   width="48px"
   height="48px"
   viewBox="0 0 48 48"
   version="1.1"
   id="svg2"
   inkscape:version="0.91 r13725"
   sodipodi:docname="Instagram-gray.svg">
  <metadata
     id="metadata15">
    <rdf:RDF>
      <cc:Work
         rdf:about="">
        <dc:format>image/svg+xml</dc:format>
        <dc:type
           rdf:resource="http://purl.org/dc/dcmitype/StillImage" />
        <dc:title>Instagram-gray</dc:title>
      </cc:Work>
    </rdf:RDF>
  </metadata>
  <sodipodi:namedview
     pagecolor="#ffffff"
     bordercolor="#666666"
     borderopacity="1"
     objecttolerance="10"
     gridtolerance="10"
     guidetolerance="10"
     inkscape:pageopacity="0"
     inkscape:pageshadow="2"
     inkscape:window-width="1366"
     inkscape:window-height="705"
     id="namedview13"
     showgrid="false"
     inkscape:zoom="10.375328"
     inkscape:cx="27.050847"
     inkscape:cy="23.728943"
     inkscape:window-x="-8"
     inkscape:window-y="-8"
     inkscape:window-maximized="1"
     inkscape:current-layer="svg2" />
  <!-- Generator: Sketch 3.7.2 (28276) - http://www.bohemiancoding.com/sketch -->
  <title
     id="title4">Instagram-gray</title>
  <desc
     id="desc6">Created with Sketch.</desc>
  <defs
     id="defs8" />
  <path
     style="opacity:1;fill:#4a4a4a;fill-opacity:1;stroke:#4a4a4a;stroke-width:0.09;stroke-miterlimit:4;stroke-dasharray:none;stroke-opacity:1"
     d="M 3.9765625 -0.044921875 C 1.7986832 -0.044921875 0.044921875 1.7088395 0.044921875 3.8867188 L 0.044921875 44.023438 C 0.044921875 46.201317 1.7986832 47.955078 3.9765625 47.955078 L 44.113281 47.955078 C 46.291161 47.955078 48.044922 46.201317 48.044922 44.023438 L 48.044922 3.8867188 C 48.044922 1.7088395 46.291161 -0.044921875 44.113281 -0.044921875 L 3.9765625 -0.044921875 z M 24 5 C 28.88847 5 29.50198 5.0198219 31.421875 5.1074219 C 33.337765 5.1948044 34.646088 5.500315 35.791016 5.9453125 C 36.974673 6.4052425 37.977776 7.0208119 38.978516 8.0214844 C 39.979188 9.0222244 40.594683 10.025327 41.054688 11.208984 C 41.49961 12.353912 41.805196 13.662235 41.892578 15.578125 C 41.980201 17.49802 42 18.111455 42 23 C 42 27.88847 41.980178 28.50198 41.892578 30.421875 C 41.805196 32.337765 41.49961 33.646081 41.054688 34.791016 C 40.594683 35.974673 39.979188 36.977776 38.978516 37.978516 C 37.977776 38.979188 36.974673 39.594683 35.791016 40.054688 C 34.646088 40.49961 33.337765 40.805196 31.421875 40.892578 C 29.50198 40.980201 28.88847 41 24 41 C 19.111455 41 18.49802 40.980178 16.578125 40.892578 C 14.662235 40.805196 13.353912 40.49961 12.208984 40.054688 C 11.025327 39.594683 10.022224 38.979188 9.0214844 37.978516 C 8.0208119 36.977776 7.4052425 35.974673 6.9453125 34.791016 C 6.500315 33.646081 6.1948044 32.337765 6.1074219 30.421875 C 6.0197994 28.50198 6 27.88847 6 23 C 6 18.111455 6.0198219 17.49802 6.1074219 15.578125 C 6.1948044 13.662235 6.500315 12.353912 6.9453125 11.208984 C 7.4052425 10.025327 8.0208119 9.0222244 9.0214844 8.0214844 C 10.022224 7.0208119 11.025327 6.4052425 12.208984 5.9453125 C 13.353912 5.500315 14.662235 5.1948044 16.578125 5.1074219 C 18.49802 5.0197994 19.111455 5 24 5 z M 24 8.2441406 C 19.193768 8.2441406 18.624587 8.2610538 16.726562 8.3476562 C 14.971577 8.4276813 14.019033 8.7222475 13.384766 8.96875 C 12.544571 9.295285 11.944296 9.6845431 11.314453 10.314453 C 10.684543 10.944296 10.295285 11.544571 9.96875 12.384766 C 9.7222475 13.019033 9.4276812 13.971578 9.3476562 15.726562 C 9.2610687 17.624588 9.2441406 18.193768 9.2441406 23 C 9.2441406 27.806158 9.2610537 28.375412 9.3476562 30.273438 C 9.4276812 32.028422 9.7222475 32.980967 9.96875 33.615234 C 10.295285 34.455429 10.684611 35.055704 11.314453 35.685547 C 11.944296 36.315457 12.544571 36.704715 13.384766 37.03125 C 14.019033 37.277752 14.971577 37.572319 16.726562 37.652344 C 18.624378 37.738931 19.193408 37.755859 24 37.755859 C 28.806518 37.755859 29.375698 37.738946 31.273438 37.652344 C 33.028422 37.572319 33.980967 37.277752 34.615234 37.03125 C 35.455429 36.704715 36.055704 36.315457 36.685547 35.685547 C 37.315457 35.055704 37.704715 34.455429 38.03125 33.615234 C 38.277753 32.980967 38.572319 32.028422 38.652344 30.273438 C 38.738931 28.375412 38.755859 27.806158 38.755859 23 C 38.755859 18.193768 38.738946 17.624587 38.652344 15.726562 C 38.572319 13.971577 38.277752 13.019033 38.03125 12.384766 C 37.704715 11.544571 37.315457 10.944296 36.685547 10.314453 C 36.055704 9.6845431 35.455429 9.295285 34.615234 8.96875 C 33.980967 8.7222475 33.028422 8.4276812 31.273438 8.3476562 C 29.375413 8.2610687 28.806158 8.2441406 24 8.2441406 z M 33.609375 11.232422 C 34.802325 11.232422 35.767578 12.197675 35.767578 13.390625 C 35.767578 14.583575 34.802325 15.550781 33.609375 15.550781 C 32.4165 15.550781 31.449219 14.583575 31.449219 13.390625 C 31.449219 12.197675 32.4165 11.232422 33.609375 11.232422 z M 24 13.755859 C 29.104897 13.755859 33.244141 17.895027 33.244141 23 C 33.244141 28.104898 29.104897 32.244141 24 32.244141 C 18.895027 32.244141 14.755859 28.104898 14.755859 23 C 14.755859 17.895027 18.895027 13.755859 24 13.755859 z M 24 17 C 20.686238 17 18 19.686238 18 23 C 18 26.313687 20.686238 29 24 29 C 27.313688 29 30 26.313687 30 23 C 30 19.686238 27.313688 17 24 17 z "
     id="rect4143" />
  <g
     id="Icons"
     transform="matrix(0.75,0,0,0.75,6,5)"
     style="fill:none;fill-rule:evenodd;stroke:none;stroke-width:1">
    <g
       id="Black"
       transform="translate(-500,-160)"
       style="fill:#000000" />
  </g>
</svg>
